<?xml version="1.0" encoding="UTF-8" standalone="no"?>
<!-- Created with Inkscape (http://www.inkscape.org/) -->

<svg
   width="500mm"
   height="500mm"
   viewBox="0 0 500 500"
   version="1.1"
   id="svg1"
   inkscape:version="1.4.2 (ebf0e940, 2025-05-08)"
   sodipodi:docname="compass-logo-5.svg"
   inkscape:export-filename="compass-logo.png"
   inkscape:export-xdpi="96"
   inkscape:export-ydpi="96"
   xmlns:inkscape="http://www.inkscape.org/namespaces/inkscape"
   xmlns:sodipodi="http://sodipodi.sourceforge.net/DTD/sodipodi-0.dtd"
   xmlns="http://www.w3.org/2000/svg"
   xmlns:svg="http://www.w3.org/2000/svg">
  <sodipodi:namedview
     id="namedview1"
     pagecolor="#ffffff"
     bordercolor="#000000"
     borderopacity="0.25"
     inkscape:showpageshadow="2"
     inkscape:pageopacity="0.0"
     inkscape:pagecheckerboard="0"
     inkscape:deskcolor="#d1d1d1"
     inkscape:document-units="mm"
     showgrid="true"
     inkscape:zoom="0.74762032"
     inkscape:cx="873.438"
     inkscape:cy="1070.0619"
     inkscape:window-width="1728"
     inkscape:window-height="969"
     inkscape:window-x="0"
     inkscape:window-y="25"
     inkscape:window-maximized="0"
     inkscape:current-layer="g11"
     showguides="true">
    <inkscape:grid
       id="grid1"
       units="mm"
       originx="0"
       originy="0"
       spacingx="0.99999998"
       spacingy="1"
       empcolor="#0099e5"
       empopacity="0.30196078"
       color="#0099e5"
       opacity="0.14901961"
       empspacing="5"
       enabled="true"
       visible="true" />
  </sodipodi:namedview>
  <defs
     id="defs1">
    <inkscape:path-effect
       effect="powerstroke"
       message=""
       id="path-effect13"
       is_visible="true"
       lpeversion="1.3"
       scale_width="1"
       interpolator_type="CentripetalCatmullRom"
       interpolator_beta="0.2"
       start_linecap_type="zerowidth"
       end_linecap_type="zerowidth"
       offset_points="0.19821133,-2.8421709e-14 | 0.5,0.5 | 0.8,0.5 | 1.2,0.5 | 1.5,0.5 | 1.8,0.5 | 2.2,0.5 | 2.5,0.5 | 2.8,0.5 | 3.2,0.5 | 3.5,0.5 | 3.8,0.5"
       linejoin_type="round"
       miter_limit="4"
       not_jump="false"
       sort_points="true" />
    <inkscape:path-effect
       effect="copy_rotate"
       starting_point="0,0"
       origin="250,250"
       id="path-effect12"
       is_visible="true"
       lpeversion="1.2"
       lpesatellites=""
       method="normal"
       num_copies="4"
       starting_angle="0"
       rotation_angle="90"
       gap="0"
       copies_to_360="true"
       mirror_copies="false"
       split_items="false"
       link_styles="false" />
    <inkscape:path-effect
       effect="copy_rotate"
       starting_point="0,0"
       origin="250,250"
       id="path-effect11"
       is_visible="true"
       lpeversion="1.2"
       lpesatellites=""
       method="normal"
       num_copies="4"
       starting_angle="0"
       rotation_angle="90"
       gap="0"
       copies_to_360="true"
       mirror_copies="false"
       split_items="false"
       link_styles="false" />
    <inkscape:path-effect
       effect="copy_rotate"
       starting_point="0,0"
       origin="250,250"
       id="path-effect7"
       is_visible="true"
       lpeversion="1.2"
       lpesatellites=""
       method="normal"
       num_copies="4"
       starting_angle="0"
       rotation_angle="90"
       gap="0"
       copies_to_360="true"
       mirror_copies="false"
       split_items="false"
       link_styles="false" />
    <inkscape:path-effect
       effect="copy_rotate"
       starting_point="0,0"
       origin="250,245"
       id="path-effect5"
       is_visible="true"
       lpeversion="1.2"
       lpesatellites=""
       method="normal"
       num_copies="4"
       starting_angle="0"
       rotation_angle="90"
       gap="0"
       copies_to_360="true"
       mirror_copies="false"
       split_items="false"
       link_styles="false" />
    <inkscape:path-effect
       effect="copy_rotate"
       starting_point="0,0"
       origin="250,250"
       id="path-effect5-6"
       is_visible="false"
       lpeversion="1.2"
       lpesatellites=""
       method="normal"
       num_copies="4"
       starting_angle="0"
       rotation_angle="90"
       gap="-0.01"
       copies_to_360="true"
       mirror_copies="false"
       split_items="false"
       link_styles="false" />
    <inkscape:path-effect
       effect="fill_between_many"
       method="bsplinespiro"
       autoreverse="false"
       close="false"
       join="false"
       linkedpaths="#path10,0,1"
       id="path-effect14" />
  </defs>
  <circle
     style="fill:none;fill-opacity:1;stroke:#000000;stroke-width:2.3;stroke-linecap:round;stroke-linejoin:round;stroke-dasharray:none;paint-order:markers fill stroke"
     id="path9"
     cx="250"
     cy="250"
     r="209.47632" />
  <g
     inkscape:groupmode="layer"
     id="layer4"
     inkscape:label="Layer 4">
    <g
       inkscape:groupmode="layer"
       id="layer3"
       inkscape:label="Layer 3">
      <path
         id="path9-8"
         style="display:inline;fill:none;stroke:#000000;stroke-width:1.7;stroke-linecap:round;stroke-linejoin:round;paint-order:markers fill stroke;stroke-dasharray:none"
         d="M 434.24503,250 C 434.24503,351.75572 351.75572,434.24503 250,434.24503 148.24428,434.24503 65.754974,351.75572 65.754974,250"
         sodipodi:nodetypes="csc" />
      <path
         id="path9-7-1"
         style="fill:none;stroke:#000000;stroke-width:1.7;stroke-linecap:round;stroke-linejoin:round;paint-order:markers fill stroke;stroke-dasharray:none"
         d="M 405,250 C 405,335.90342 335.36152,405.5419 249.4581,405.5419 163.55468,405.5419 93.916199,335.90342 93.916199,250"
         sodipodi:nodetypes="csc" />
    </g>
    <g
       id="g11"
       inkscape:label="g11"
       inkscape:path-effect="#path-effect12"
       transform="matrix(0.90909092,0,0,0.90909092,22.727267,22.727267)"
       style="stroke-width:1.86999998;stroke-dasharray:none">
      <path
         style="fill:#fefefe;fill-opacity:1;stroke:#000000;stroke-width:1.86999998;stroke-linecap:round;stroke-linejoin:round;stroke-dasharray:none;paint-order:markers fill stroke"
         d="M 269.99999,230 250,39.999999 230,230 250.00001,250.00001 250,39.999999 230,230 250,250 V 39.999999 M 230,230.00001 39.999999,250 230,270 250.00001,249.99999 39.999999,250 230,270 250,250 H 39.999999 M 230.00001,270 250,460 270,270 249.99999,249.99999 250,460 270,270 250,250 V 460 M 270,269.99999 460,250 270,230 249.99999,250.00001 460,250 270,230 250,250 h 210"
         id="path7"
         inkscape:original-d="M 269.99999,230 250,39.999999 230,230 250.00001,250.00001 250,39.999999 230,230 250,250 V 39.999999"
         sodipodi:nodetypes="cccccccc" />
      <path
         style="fill:#000000;fill-opacity:1;stroke:#000000;stroke-width:1.86999998;stroke-linecap:round;stroke-dasharray:none;paint-order:markers fill stroke"
         d="M 250,39.999999 269.99999,230 250,250 Z M 39.999999,250 230,230.00001 250,250 Z M 250,460 230.00001,270 250,250 Z M 460,250 270,269.99999 250,250 Z"
         id="path2"
         inkscape:original-d="M 250,39.999999 269.99999,230 250,250 Z"
         sodipodi:nodetypes="cccc" />
      <path
         style="fill:#ffffff;fill-opacity:1;stroke:#000000;stroke-width:1.7;stroke-linecap:round;stroke-dasharray:none;stroke-opacity:1;paint-order:markers fill stroke"
         id="path8"
         d="m 260.08796,250.00002 c 0,5.57141 -4.51653,10.08794 -10.08794,10.08794 -5.57142,0 -10.08795,-4.51653 -10.08795,-10.08794 0,-5.57142 4.51653,-10.08795 10.08795,-10.08795 5.57141,0 10.08794,4.51653 10.08794,10.08795 z m -10.08794,-10.08798 c 5.57141,0 10.08794,4.51653 10.08794,10.08794 0,5.57142 -4.51653,10.08795 -10.08794,10.08795 -5.57142,0 -10.08795,-4.51653 -10.08795,-10.08795 0,-5.57141 4.51653,-10.08794 10.08795,-10.08794 z m -10.08798,10.08794 c 0,-5.57141 4.51653,-10.08794 10.08794,-10.08794 5.57142,0 10.08795,4.51653 10.08795,10.08794 0,5.57142 -4.51653,10.08795 -10.08795,10.08795 -5.57141,0 -10.08794,-4.51653 -10.08794,-10.08795 z m 10.08794,10.08798 c -5.57141,0 -10.08794,-4.51653 -10.08794,-10.08794 0,-5.57142 4.51653,-10.08795 10.08794,-10.08795 5.57142,0 10.08795,4.51653 10.08795,10.08795 0,5.57141 -4.51653,10.08794 -10.08795,10.08794 z"
         sodipodi:type="arc"
         sodipodi:cx="250.00002"
         sodipodi:cy="250.00002"
         sodipodi:rx="10.087947"
         sodipodi:ry="10.087947" />
    </g>
  </g>
</svg>
