<?xml version="1.0" encoding="UTF-8" standalone="no"?>
<!-- Created with Inkscape (http://www.inkscape.org/) -->

<svg
   width="500mm"
   height="500mm"
   viewBox="0 0 500 500"
   version="1.1"
   id="svg1"
   inkscape:version="1.4.2 (ebf0e940, 2025-05-08)"
   sodipodi:docname="compass-logo-5-small.svg"
   inkscape:export-filename="compass-logo.png"
   inkscape:export-xdpi="96"
   inkscape:export-ydpi="96"
   xmlns:inkscape="http://www.inkscape.org/namespaces/inkscape"
   xmlns:sodipodi="http://sodipodi.sourceforge.net/DTD/sodipodi-0.dtd"
   xmlns="http://www.w3.org/2000/svg"
   xmlns:svg="http://www.w3.org/2000/svg">
  <sodipodi:namedview
     id="namedview1"
     pagecolor="#ffffff"
     bordercolor="#000000"
     borderopacity="0.25"
     inkscape:showpageshadow="2"
     inkscape:pageopacity="0.0"
     inkscape:pagecheckerboard="0"
     inkscape:deskcolor="#d1d1d1"
     inkscape:document-units="mm"
     showgrid="true"
     inkscape:zoom="0.53244902"
     inkscape:cx="890.22607"
     inkscape:cy="1177.5775"
     inkscape:window-width="1728"
     inkscape:window-height="969"
     inkscape:window-x="0"
     inkscape:window-y="25"
     inkscape:window-maximized="0"
     inkscape:current-layer="layer3"
     showguides="true">
    <inkscape:grid
       id="grid1"
       units="mm"
       originx="0"
       originy="0"
       spacingx="0.99999998"
       spacingy="1"
       empcolor="#0099e5"
       empopacity="0.30196078"
       color="#0099e5"
       opacity="0.14901961"
       empspacing="5"
       enabled="true"
       visible="true" />
  </sodipodi:namedview>
  <defs
     id="defs1">
    <inkscape:path-effect
       effect="powerstroke"
       message=""
       id="path-effect13"
       is_visible="true"
       lpeversion="1.3"
       scale_width="1"
       interpolator_type="CentripetalCatmullRom"
       interpolator_beta="0.2"
       start_linecap_type="zerowidth"
       end_linecap_type="zerowidth"
       offset_points="0.19821133,-2.8421709e-14 | 0.5,0.5 | 0.8,0.5 | 1.2,0.5 | 1.5,0.5 | 1.8,0.5 | 2.2,0.5 | 2.5,0.5 | 2.8,0.5 | 3.2,0.5 | 3.5,0.5 | 3.8,0.5"
       linejoin_type="round"
       miter_limit="4"
       not_jump="false"
       sort_points="true" />
    <inkscape:path-effect
       effect="copy_rotate"
       starting_point="0,0"
       origin="250,250"
       id="path-effect12"
       is_visible="true"
       lpeversion="1.2"
       lpesatellites=""
       method="normal"
       num_copies="4"
       starting_angle="0"
       rotation_angle="90"
       gap="0"
       copies_to_360="true"
       mirror_copies="false"
       split_items="false"
       link_styles="false" />
    <inkscape:path-effect
       effect="copy_rotate"
       starting_point="0,0"
       origin="250,250"
       id="path-effect11"
       is_visible="true"
       lpeversion="1.2"
       lpesatellites=""
       method="normal"
       num_copies="4"
       starting_angle="0"
       rotation_angle="90"
       gap="0"
       copies_to_360="true"
       mirror_copies="false"
       split_items="false"
       link_styles="false" />
    <inkscape:path-effect
       effect="copy_rotate"
       starting_point="0,0"
       origin="250,250"
       id="path-effect7"
       is_visible="true"
       lpeversion="1.2"
       lpesatellites=""
       method="normal"
       num_copies="4"
       starting_angle="0"
       rotation_angle="90"
       gap="0"
       copies_to_360="true"
       mirror_copies="false"
       split_items="false"
       link_styles="false" />
    <inkscape:path-effect
       effect="copy_rotate"
       starting_point="0,0"
       origin="250,245"
       id="path-effect5"
       is_visible="true"
       lpeversion="1.2"
       lpesatellites=""
       method="normal"
       num_copies="4"
       starting_angle="0"
       rotation_angle="90"
       gap="0"
       copies_to_360="true"
       mirror_copies="false"
       split_items="false"
       link_styles="false" />
    <inkscape:path-effect
       effect="copy_rotate"
       starting_point="0,0"
       origin="250,250"
       id="path-effect5-6"
       is_visible="false"
       lpeversion="1.2"
       lpesatellites=""
       method="normal"
       num_copies="4"
       starting_angle="0"
       rotation_angle="90"
       gap="-0.01"
       copies_to_360="true"
       mirror_copies="false"
       split_items="false"
       link_styles="false" />
    <inkscape:path-effect
       effect="fill_between_many"
       method="bsplinespiro"
       autoreverse="false"
       close="false"
       join="false"
       linkedpaths="#path10,0,1"
       id="path-effect14" />
  </defs>
  <circle
     style="fill:none;fill-opacity:1;stroke:#000000;stroke-width:4;stroke-linecap:round;stroke-linejoin:round;stroke-dasharray:none;paint-order:markers fill stroke"
     id="path9"
     cx="250"
     cy="250.52368"
     r="209.47632" />
  <g
     inkscape:groupmode="layer"
     id="layer4"
     inkscape:label="Layer 4">
    <g
       inkscape:groupmode="layer"
       id="layer3"
       inkscape:label="Layer 3">
      <path
         id="path9-8"
         style="display:inline;fill:none;stroke:#000000;stroke-width:4;stroke-linecap:round;stroke-linejoin:round;stroke-dasharray:none;paint-order:markers fill stroke"
         d="M 420,249.99999 C 420,343.8884 343.88841,420 250,420 156.11159,420 80.000006,343.8884 80.000006,249.99999"
         sodipodi:nodetypes="csc" />
      <path
         id="path9-7-1"
         style="fill:none;stroke:#000000;stroke-width:4;stroke-linecap:round;stroke-linejoin:round;stroke-dasharray:none;paint-order:markers fill stroke"
         d="m 383.49199,251.50802 c 0,74.02484 -60.009,134.03384 -134.03384,134.03384 -74.02484,0 -134.03384,-60.009 -134.03384,-134.03384"
         sodipodi:nodetypes="csc" />
    </g>
    <g
       id="g11"
       inkscape:label="g11"
       inkscape:path-effect="#path-effect12"
       transform="matrix(0.90909092,0,0,0.90909092,22.727267,22.727267)"
       style="stroke-width:3.84999995;stroke-dasharray:none;fill:#000000;fill-opacity:1">
      <path
         style="fill:none;fill-opacity:1;stroke:#000000;stroke-width:3.84999995;stroke-linecap:round;stroke-linejoin:round;stroke-dasharray:none;paint-order:markers fill stroke"
         d="M 269.99999,230 250,39.999999 230,230 250.00001,250.00001 250,39.999999 230,230 250,250 V 39.999999 M 230,230.00001 39.999999,250 230,270 250.00001,249.99999 39.999999,250 230,270 250,250 H 39.999999 M 230.00001,270 250,460 270,270 249.99999,249.99999 250,460 270,270 250,250 V 460 M 270,269.99999 460,250 270,230 249.99999,250.00001 460,250 270,230 250,250 h 210"
         id="path7"
         inkscape:original-d="M 269.99999,230 250,39.999999 230,230 250.00001,250.00001 250,39.999999 230,230 250,250 V 39.999999"
         sodipodi:nodetypes="cccccccc" />
      <path
         style="fill:#000000;fill-opacity:1;stroke:#000000;stroke-width:3.84999995;stroke-linecap:round;stroke-dasharray:none;paint-order:markers fill stroke"
         d="M 250,39.999999 269.99999,230 250,250 Z M 39.999999,250 230,230.00001 250,250 Z M 250,460 230.00001,270 250,250 Z M 460,250 270,269.99999 250,250 Z"
         id="path2"
         inkscape:original-d="M 250,39.999999 269.99999,230 250,250 Z"
         sodipodi:nodetypes="cccc" />
      <path
         style="fill:#ffffff;fill-opacity:1;stroke:#000000;stroke-width:3.84999995;stroke-linecap:round;stroke-dasharray:none;stroke-opacity:1;paint-order:markers fill stroke"
         id="path8"
         d="m 263.75001,250.00002 c 0,7.59391 -6.15608,13.74999 -13.74999,13.74999 -7.59391,0 -13.75,-6.15608 -13.75,-13.74999 0,-7.59391 6.15609,-13.75 13.75,-13.75 7.59391,0 13.74999,6.15609 13.74999,13.75 z m -13.74999,-13.75003 c 7.59391,0 13.74999,6.15608 13.74999,13.74999 0,7.59391 -6.15608,13.75 -13.74999,13.75 -7.59391,0 -13.75,-6.15609 -13.75,-13.75 0,-7.59391 6.15609,-13.74999 13.75,-13.74999 z m -13.75003,13.74999 c 0,-7.59391 6.15608,-13.74999 13.74999,-13.74999 7.59391,0 13.75,6.15608 13.75,13.74999 0,7.59391 -6.15609,13.75 -13.75,13.75 -7.59391,0 -13.74999,-6.15609 -13.74999,-13.75 z m 13.74999,13.75003 c -7.59391,0 -13.74999,-6.15608 -13.74999,-13.74999 0,-7.59391 6.15608,-13.75 13.74999,-13.75 7.59391,0 13.75,6.15609 13.75,13.75 0,7.59391 -6.15609,13.74999 -13.75,13.74999 z"
         sodipodi:type="arc"
         sodipodi:cx="250.00002"
         sodipodi:cy="250.00002"
         sodipodi:rx="13.74999"
         sodipodi:ry="13.74999" />
    </g>
  </g>
</svg>
